<?xml version="1.0" encoding="UTF-8"?>
<svg width="512px" height="512px" viewBox="0 0 512 512" version="1.1" xmlns="http://www.w3.org/2000/svg" xmlns:xlink="http://www.w3.org/1999/xlink">
    <title>assets/Icon</title>
    <g id="assets/Icon" stroke="none" stroke-width="1" fill="none" fill-rule="evenodd">
        <circle id="Oval-Copy" fill="#0F172A" cx="256" cy="256" r="224"></circle>
        <path d="M256,128 L313.428402,472.570315 C295.100501,477.417568 275.85183,480 256,480 C236.148187,480 216.899532,477.417573 198.571645,472.570328 L256,128 Z M192,256 L154.542681,455.759522 C141.340887,449.04102 128.893954,441.052273 117.362866,431.954267 L128,416 L192,256 Z M320,256 L384,416 L394.636819,431.954515 C383.105819,441.052419 370.658993,449.041081 357.457319,455.759522 L320,256 Z" id="Combined-Shape" fill="#FACC15"></path>
        <path d="M256,0 C397.384896,0 512,114.615104 512,256 C512,397.384896 397.384896,512 256,512 C114.615104,512 0,397.384896 0,256 C0,114.615104 114.615104,0 256,0 Z M256,32 C132.288216,32 32,132.288216 32,256 C32,379.711784 132.288216,480 256,480 C379.711784,480 480,379.711784 480,256 C480,132.288216 379.711784,32 256,32 Z" id="Combined-Shape" fill="#FACC15"></path>
    </g>
</svg>