<?xml version="1.0" encoding="UTF-8"?>
<svg width="1666px" height="256px" viewBox="0 0 1666 256" version="1.1" xmlns="http://www.w3.org/2000/svg" xmlns:xlink="http://www.w3.org/1999/xlink">
    <title>assets/Logo</title>
    <g id="assets/Logo" stroke="none" stroke-width="1" fill="none" fill-rule="evenodd">
        <path d="M950.160428,32.304 C959.40107,32.304 967.40107,33.5446417 974.160428,36.0259251 C980.919786,38.5072086 986.652406,41.672984 991.358289,45.5232513 C996.064171,49.3735187 999.871658,53.6088128 1002.78075,58.2291337 C1005.68984,62.8494545 1007.82888,67.2130909 1009.19786,71.3200428 L978.652406,84.1542674 C976.941176,79.0205775 973.818182,74.4002567 969.283422,70.2933048 C964.748663,66.1863529 958.545455,64.132877 950.673797,64.132877 C943.144385,64.132877 936.898396,65.8868877 931.935829,69.3949091 C926.973262,72.9029305 924.491979,77.4804706 924.491979,83.1275294 C924.491979,88.6034652 926.887701,93.2665668 931.679144,97.1168342 C936.470588,100.967102 944.085561,104.689027 954.524064,108.28261 L966.074866,112.132877 C973.433155,114.699722 980.149733,117.651594 986.224599,120.988492 C992.299465,124.32539 997.518717,128.304 1001.88235,132.924321 C1006.24599,137.544642 1009.58289,142.806674 1011.89305,148.710417 C1014.20321,154.61416 1015.35829,161.416299 1015.35829,169.116834 C1015.35829,178.699722 1013.43316,186.956406 1009.58289,193.886888 C1005.73262,200.817369 1000.81283,206.507209 994.823529,210.956406 C988.834225,215.405604 982.074866,218.742503 974.545455,220.967102 C967.016043,223.191701 959.657754,224.304 952.470588,224.304 C944.59893,224.304 937.069519,223.191701 929.882353,220.967102 C922.695187,218.742503 916.106952,215.405604 910.117647,210.956406 C904.128342,206.507209 898.909091,201.074053 894.459893,194.656941 C890.010695,188.239829 886.502674,180.753198 883.935829,172.197048 L916.534759,159.362824 C918.930481,168.603465 923.122995,176.261219 929.112299,182.336086 C935.101604,188.410952 942.973262,191.448385 952.727273,191.448385 C956.320856,191.448385 959.786096,190.977797 963.122995,190.03662 C966.459893,189.095444 969.454545,187.72646 972.106952,185.929668 C974.759358,184.132877 976.855615,181.865497 978.395722,179.127529 C979.935829,176.389561 980.705882,173.223786 980.705882,169.630203 C980.705882,166.207743 980.106952,163.127529 978.909091,160.389561 C977.71123,157.651594 975.700535,155.084749 972.877005,152.689027 C970.053476,150.293305 966.374332,147.983144 961.839572,145.758545 C957.304813,143.533947 951.700535,141.223786 945.026738,138.828064 L933.73262,134.721112 C928.770053,133.009882 923.764706,130.699722 918.716578,127.790631 C913.668449,124.88154 909.090909,121.373519 904.983957,117.266567 C900.877005,113.159615 897.497326,108.32539 894.84492,102.763893 C892.192513,97.2023957 890.86631,90.9136257 890.86631,83.8975829 C890.86631,76.7104171 892.278075,69.9938396 895.101604,63.7478503 C897.925134,57.501861 901.946524,52.0259251 907.165775,47.3200428 C912.385027,42.6141604 918.631016,38.935016 925.903743,36.2826096 C933.176471,33.6302032 941.262032,32.304 950.160428,32.304 Z M354.652406,36.4109519 L354.652406,220.197048 L320,220.197048 L320,36.4109519 L354.652406,36.4109519 Z M431.914439,36.4109519 L505.839572,159.619508 L507.893048,159.619508 L505.839572,124.197048 L505.839572,36.4109519 L540.235294,36.4109519 L540.235294,220.197048 L503.786096,220.197048 L425.754011,90.0580107 L423.700535,90.0580107 L425.754011,125.480471 L425.754011,220.197048 L391.614973,220.197048 L391.614973,36.4109519 L431.914439,36.4109519 Z M595.42246,36.4109519 L633.411765,147.041968 L640.085561,170.656941 L642.139037,170.656941 L649.326203,147.041968 L688.855615,36.4109519 L726.331551,36.4109519 L659.336898,220.197048 L622.887701,220.197048 L557.946524,36.4109519 L595.42246,36.4109519 Z M864.427807,36.4109519 L864.427807,69.2665668 L782.545455,69.2665668 L782.545455,111.876193 L856.213904,111.876193 L856.213904,144.731807 L782.545455,144.731807 L782.545455,187.341433 L864.427807,187.341433 L864.427807,220.197048 L747.893048,220.197048 L747.893048,36.4109519 L864.427807,36.4109519 Z M1166.28877,36.4109519 L1166.28877,69.2665668 L1114.95187,69.2665668 L1114.95187,220.197048 L1080.29947,220.197048 L1080.29947,69.2665668 L1028.96257,69.2665668 L1028.96257,36.4109519 L1166.28877,36.4109519 Z M1255.61497,36.4109519 C1264.34225,36.4109519 1272.51337,37.8227166 1280.12834,40.646246 C1287.74332,43.4697754 1294.37433,47.448385 1300.02139,52.5820749 C1305.66845,57.7157647 1310.11765,63.8334118 1313.36898,70.935016 C1316.62032,78.0366203 1318.24599,85.8654973 1318.24599,94.4216471 C1318.24599,103.14892 1316.62032,111.063358 1313.36898,118.164963 C1310.11765,125.266567 1305.66845,131.384214 1300.02139,136.517904 C1294.37433,141.651594 1287.74332,145.630203 1280.12834,148.453733 C1272.51337,151.277262 1264.34225,152.689027 1255.61497,152.689027 L1225.58289,152.689027 L1225.58289,220.197048 L1190.93048,220.197048 L1190.93048,36.4109519 L1255.61497,36.4109519 Z M1418.09626,36.4109519 L1487.14439,220.197048 L1448.8984,220.197048 L1433.75401,176.304 L1362.90909,176.304 L1347.76471,220.197048 L1309.51872,220.197048 L1378.56684,36.4109519 L1418.09626,36.4109519 Z M1570.82353,36.4109519 C1585.36898,36.4109519 1598.45989,38.6355508 1610.09626,43.0847487 C1621.73262,47.5339465 1631.65775,53.8227166 1639.87166,61.9510588 C1648.08556,70.0794011 1654.37433,79.790631 1658.73797,91.0847487 C1663.1016,102.378866 1665.28342,114.785283 1665.28342,128.304 C1665.28342,141.99384 1663.1016,154.485818 1658.73797,165.779936 C1654.37433,177.074053 1648.08556,186.742503 1639.87166,194.785283 C1631.65775,202.828064 1621.73262,209.074053 1610.09626,213.523251 C1598.45989,217.972449 1585.36898,220.197048 1570.82353,220.197048 L1508.70588,220.197048 L1508.70588,36.4109519 L1570.82353,36.4109519 Z M1569.28342,69.2665668 L1543.35829,69.2665668 L1543.35829,187.341433 L1569.28342,187.341433 C1579.37968,187.341433 1588.27807,185.929668 1595.97861,183.106139 C1603.67914,180.28261 1610.09626,176.304 1615.22995,171.17031 C1620.36364,166.03662 1624.2139,159.833412 1626.78075,152.560684 C1629.34759,145.287957 1630.63102,137.202396 1630.63102,128.304 C1630.63102,119.405604 1629.34759,111.320043 1626.78075,104.047316 C1624.2139,96.7745882 1620.36364,90.5713797 1615.22995,85.4376898 C1610.09626,80.304 1603.67914,76.3253904 1595.97861,73.501861 C1588.27807,70.6783316 1579.37968,69.2665668 1569.28342,69.2665668 Z M1399.35829,76.1970481 L1397.30481,76.1970481 L1390.63102,98.5285989 L1374.20321,144.475123 L1422.45989,144.475123 L1406.03209,98.5285989 L1399.35829,76.1970481 Z M1256.12834,69.2665668 L1225.58289,69.2665668 L1225.58289,119.833412 L1256.12834,119.833412 C1265.19786,119.833412 1272.04278,117.266567 1276.6631,112.132877 C1281.28342,106.999187 1283.59358,101.095444 1283.59358,94.4216471 C1283.59358,91.1703102 1283.03743,88.0045348 1281.92513,84.9243209 C1280.81283,81.844107 1279.1016,79.1489198 1276.79144,76.8387594 C1274.48128,74.5285989 1271.61497,72.6890267 1268.19251,71.3200428 C1264.77005,69.9510588 1260.74866,69.2665668 1256.12834,69.2665668 Z" id="Text" fill="#0F172A"></path>
        <g id="Icon">
            <circle id="Oval-Copy" fill="#0F172A" cx="128" cy="128" r="112"></circle>
            <path d="M128,64 L156.714201,236.285158 C147.55025,238.708784 137.925915,240 128,240 C118.074102,240 108.449782,238.708788 99.2858461,236.28517 L128,64 Z M96,128 L77.2718404,227.880016 C70.6708889,224.520778 64.4473701,220.52641 58.6817771,215.977405 L64,208 L96,128 Z M160,128 L192,208 L197.317908,215.977653 C191.552404,220.526556 185.328991,224.520839 178.72816,227.880016 L160,128 Z" id="Combined-Shape" fill="#FACC15"></path>
            <path d="M128,0 C198.692448,0 256,57.307552 256,128 C256,198.692448 198.692448,256 128,256 C57.307552,256 0,198.692448 0,128 C0,57.307552 57.307552,0 128,0 Z M128,16 C66.144108,16 16,66.144108 16,128 C16,189.855892 66.144108,240 128,240 C189.855892,240 240,189.855892 240,128 C240,66.144108 189.855892,16 128,16 Z" id="Combined-Shape" fill="#FACC15"></path>
        </g>
    </g>
</svg>